# xmcd
#
# Track frame offsets:
#	150
#	22039
#	41089
#	60740
#	78325
#	97077
#	118826
#	139264
#	150178
#	170951
#	191280
#
# Disc length: 2756 seconds
#
# Revision: 1
# Processed by: cddbd v1.5.2PL0 Copyright (c) Steve Scherf et al.
# Submitted via: audiograbber 1.83.01
#
DISCID=940ac20b
DTITLE=Charlie Lucas Band - Which Way to Turn
DYEAR=2008
DGENRE=Texas Country
TTITLE0=Which Way To Turn
TTITLE1=Should Be With You
TTITLE2=Why Not Texas
TTITLE3=Nineteen in Love
TTITLE4=Feet on the Dashboard
TTITLE5=The End
TTITLE6=Whiskey
TTITLE7=Runnin Hard and Lovin Easy
TTITLE8=Missed You Yesterday
TTITLE9=Tonight
TTITLE10=Been Here Before
EXTD=Feet on the Dashboard written by Donny Waits and Nate Smith\nAll other tra
EXTD=cks wrriten by Charlie Lucas.\nwww.CharlieLucasBand.net
EXTT0=written by Charlie Lucas
EXTT1=written by Charlie Lucas
EXTT2=written by Charlie Lucas
EXTT3=written by Charlie Lucas
EXTT4=written by Donny Waits and Nate Smith
EXTT5=written by Charlie Lucas
EXTT6=written by Charlie Lucas
EXTT7=written by Charlie Lucas
EXTT8=written by Charlie Lucas
EXTT9=written by Charlie Lucas
EXTT10=written by Charlie Lucas
PLAYORDER=
